0
SECTION
2
HEADER
9
$ACADVER
1
AC1015
9
$INSUNITS
70
4
0
ENDSEC
0
SECTION
2
ENTITIES
0
LWPOLYLINE
8
CUT
90
4
70
1
10
8
20
6
10
182
20
6
10
182
20
254
10
8
20
254
0
LWPOLYLINE
8
CUT
90
8
70
1
10
11.0
20
219.0
10
31.57142857142857
20
219.0
42
0.41421356
10
32.57142857142857
20
218.0
10
32.57142857142857
20
192.33333333333334
42
0.41421356
10
31.57142857142857
20
191.33333333333334
10
11.0
20
191.33333333333334
42
0.41421356
10
10.0
20
192.33333333333334
10
10.0
20
218.0
42
0.41421356
0
LWPOLYLINE
8
CUT
90
8
70
1
10
35.57142857142857
20
189.33333333333334
10
56.14285714285714
20
189.33333333333334
42
0.41421356
10
57.14285714285714
20
188.33333333333334
10
57.14285714285714
20
162.66666666666669
42
0.41421356
10
56.14285714285714
20
161.66666666666669
10
35.57142857142857
20
161.66666666666669
42
0.41421356
10
34.57142857142857
20
162.66666666666669
10
34.57142857142857
20
188.33333333333334
42
0.41421356
0
LWPOLYLINE
8
CUT
90
8
70
1
10
60.142857142857146
20
189.33333333333334
10
80.71428571428572
20
189.33333333333334
42
0.41421356
10
81.71428571428572
20
188.33333333333334
10
81.71428571428572
20
162.66666666666669
42
0.41421356
10
80.71428571428572
20
161.66666666666669
10
60.142857142857146
20
161.66666666666669
42
0.41421356
10
59.142857142857146
20
162.66666666666669
10
59.142857142857146
20
188.33333333333334
42
0.41421356
0
LWPOLYLINE
8
CUT
90
8
70
1
10
84.71428571428572
20
189.33333333333334
10
105.28571428571429
20
189.33333333333334
42
0.41421356
10
106.28571428571429
20
188.33333333333334
10
106.28571428571429
20
162.66666666666669
42
0.41421356
10
105.28571428571429
20
161.66666666666669
10
84.71428571428572
20
161.66666666666669
42
0.41421356
10
83.71428571428572
20
162.66666666666669
10
83.71428571428572
20
188.33333333333334
42
0.41421356
0
LWPOLYLINE
8
CUT
90
8
70
1
10
109.28571428571429
20
189.33333333333334
10
129.85714285714286
20
189.33333333333334
42
0.41421356
10
130.85714285714286
20
188.33333333333334
10
130.85714285714286
20
162.66666666666669
42
0.41421356
10
129.85714285714286
20
161.66666666666669
10
109.28571428571429
20
161.66666666666669
42
0.41421356
10
108.28571428571429
20
162.66666666666669
10
108.28571428571429
20
188.33333333333334
42
0.41421356
0
LWPOLYLINE
8
CUT
90
8
70
1
10
133.85714285714286
20
189.33333333333334
10
154.42857142857144
20
189.33333333333334
42
0.41421356
10
155.42857142857144
20
188.33333333333334
10
155.42857142857144
20
162.66666666666669
42
0.41421356
10
154.42857142857144
20
161.66666666666669
10
133.85714285714286
20
161.66666666666669
42
0.41421356
10
132.85714285714286
20
162.66666666666669
10
132.85714285714286
20
188.33333333333334
42
0.41421356
0
LWPOLYLINE
8
CUT
90
8
70
1
10
158.42857142857144
20
189.33333333333334
10
179.00000000000003
20
189.33333333333334
42
0.41421356
10
180.00000000000003
20
188.33333333333334
10
180.00000000000003
20
162.66666666666669
42
0.41421356
10
179.00000000000003
20
161.66666666666669
10
158.42857142857144
20
161.66666666666669
42
0.41421356
10
157.42857142857144
20
162.66666666666669
10
157.42857142857144
20
188.33333333333334
42
0.41421356
0
LWPOLYLINE
8
CUT
90
8
70
1
10
11.0
20
189.33333333333334
10
31.57142857142857
20
189.33333333333334
42
0.41421356
10
32.57142857142857
20
188.33333333333334
10
32.57142857142857
20
162.66666666666669
42
0.41421356
10
31.57142857142857
20
161.66666666666669
10
11.0
20
161.66666666666669
42
0.41421356
10
10.0
20
162.66666666666669
10
10.0
20
188.33333333333334
42
0.41421356
0
LWPOLYLINE
8
CUT
90
8
70
1
10
35.57142857142857
20
189.33333333333334
10
56.14285714285714
20
189.33333333333334
42
0.41421356
10
57.14285714285714
20
188.33333333333334
10
57.14285714285714
20
162.66666666666669
42
0.41421356
10
56.14285714285714
20
161.66666666666669
10
35.57142857142857
20
161.66666666666669
42
0.41421356
10
34.57142857142857
20
162.66666666666669
10
34.57142857142857
20
188.33333333333334
42
0.41421356
0
LWPOLYLINE
8
CUT
90
8
70
1
10
60.142857142857146
20
189.33333333333334
10
80.71428571428572
20
189.33333333333334
42
0.41421356
10
81.71428571428572
20
188.33333333333334
10
81.71428571428572
20
162.66666666666669
42
0.41421356
10
80.71428571428572
20
161.66666666666669
10
60.142857142857146
20
161.66666666666669
42
0.41421356
10
59.142857142857146
20
162.66666666666669
10
59.142857142857146
20
188.33333333333334
42
0.41421356
0
LWPOLYLINE
8
CUT
90
8
70
1
10
84.71428571428572
20
189.33333333333334
10
105.28571428571429
20
189.33333333333334
42
0.41421356
10
106.28571428571429
20
188.33333333333334
10
106.28571428571429
20
162.66666666666669
42
0.41421356
10
105.28571428571429
20
161.66666666666669
10
84.71428571428572
20
161.66666666666669
42
0.41421356
10
83.71428571428572
20
162.66666666666669
10
83.71428571428572
20
188.33333333333334
42
0.41421356
0
LWPOLYLINE
8
CUT
90
8
70
1
10
109.28571428571429
20
189.33333333333334
10
129.85714285714286
20
189.33333333333334
42
0.41421356
10
130.85714285714286
20
188.33333333333334
10
130.85714285714286
20
162.66666666666669
42
0.41421356
10
129.85714285714286
20
161.66666666666669
10
109.28571428571429
20
161.66666666666669
42
0.41421356
10
108.28571428571429
20
162.66666666666669
10
108.28571428571429
20
188.33333333333334
42
0.41421356
0
LWPOLYLINE
8
CUT
90
8
70
1
10
133.85714285714286
20
189.33333333333334
10
154.42857142857144
20
189.33333333333334
42
0.41421356
10
155.42857142857144
20
188.33333333333334
10
155.42857142857144
20
162.66666666666669
42
0.41421356
10
154.42857142857144
20
161.66666666666669
10
133.85714285714286
20
161.66666666666669
42
0.41421356
10
132.85714285714286
20
162.66666666666669
10
132.85714285714286
20
188.33333333333334
42
0.41421356
0
LWPOLYLINE
8
CUT
90
8
70
1
10
158.42857142857144
20
189.33333333333334
10
179.00000000000003
20
189.33333333333334
42
0.41421356
10
180.00000000000003
20
188.33333333333334
10
180.00000000000003
20
162.66666666666669
42
0.41421356
10
179.00000000000003
20
161.66666666666669
10
158.42857142857144
20
161.66666666666669
42
0.41421356
10
157.42857142857144
20
162.66666666666669
10
157.42857142857144
20
188.33333333333334
42
0.41421356
0
LWPOLYLINE
8
CUT
90
8
70
1
10
11.0
20
159.66666666666666
10
31.57142857142857
20
159.66666666666666
42
0.41421356
10
32.57142857142857
20
158.66666666666666
10
32.57142857142857
20
133.0
42
0.41421356
10
31.57142857142857
20
132.0
10
11.0
20
132.0
42
0.41421356
10
10.0
20
133.0
10
10.0
20
158.66666666666666
42
0.41421356
0
LWPOLYLINE
8
CUT
90
8
70
1
10
35.57142857142857
20
189.33333333333334
10
56.14285714285714
20
189.33333333333334
42
0.41421356
10
57.14285714285714
20
188.33333333333334
10
57.14285714285714
20
162.66666666666669
42
0.41421356
10
56.14285714285714
20
161.66666666666669
10
35.57142857142857
20
161.66666666666669
42
0.41421356
10
34.57142857142857
20
162.66666666666669
10
34.57142857142857
20
188.33333333333334
42
0.41421356
0
LWPOLYLINE
8
CUT
90
8
70
1
10
60.142857142857146
20
189.33333333333334
10
80.71428571428572
20
189.33333333333334
42
0.41421356
10
81.71428571428572
20
188.33333333333334
10
81.71428571428572
20
162.66666666666669
42
0.41421356
10
80.71428571428572
20
161.66666666666669
10
60.142857142857146
20
161.66666666666669
42
0.41421356
10
59.142857142857146
20
162.66666666666669
10
59.142857142857146
20
188.33333333333334
42
0.41421356
0
LWPOLYLINE
8
CUT
90
8
70
1
10
84.71428571428572
20
189.33333333333334
10
105.28571428571429
20
189.33333333333334
42
0.41421356
10
106.28571428571429
20
188.33333333333334
10
106.28571428571429
20
162.66666666666669
42
0.41421356
10
105.28571428571429
20
161.66666666666669
10
84.71428571428572
20
161.66666666666669
42
0.41421356
10
83.71428571428572
20
162.66666666666669
10
83.71428571428572
20
188.33333333333334
42
0.41421356
0
LWPOLYLINE
8
CUT
90
8
70
1
10
109.28571428571429
20
189.33333333333334
10
129.85714285714286
20
189.33333333333334
42
0.41421356
10
130.85714285714286
20
188.33333333333334
10
130.85714285714286
20
162.66666666666669
42
0.41421356
10
129.85714285714286
20
161.66666666666669
10
109.28571428571429
20
161.66666666666669
42
0.41421356
10
108.28571428571429
20
162.66666666666669
10
108.28571428571429
20
188.33333333333334
42
0.41421356
0
LWPOLYLINE
8
CUT
90
8
70
1
10
133.85714285714286
20
189.33333333333334
10
154.42857142857144
20
189.33333333333334
42
0.41421356
10
155.42857142857144
20
188.33333333333334
10
155.42857142857144
20
162.66666666666669
42
0.41421356
10
154.42857142857144
20
161.66666666666669
10
133.85714285714286
20
161.66666666666669
42
0.41421356
10
132.85714285714286
20
162.66666666666669
10
132.85714285714286
20
188.33333333333334
42
0.41421356
0
LWPOLYLINE
8
CUT
90
8
70
1
10
158.42857142857144
20
189.33333333333334
10
179.00000000000003
20
189.33333333333334
42
0.41421356
10
180.00000000000003
20
188.33333333333334
10
180.00000000000003
20
162.66666666666669
42
0.41421356
10
179.00000000000003
20
161.66666666666669
10
158.42857142857144
20
161.66666666666669
42
0.41421356
10
157.42857142857144
20
162.66666666666669
10
157.42857142857144
20
188.33333333333334
42
0.41421356
0
LWPOLYLINE
8
CUT
90
8
70
1
10
11.0
20
130.0
10
31.57142857142857
20
130.0
42
0.41421356
10
32.57142857142857
20
129.0
10
32.57142857142857
20
103.33333333333333
42
0.41421356
10
31.57142857142857
20
102.33333333333333
10
11.0
20
102.33333333333333
42
0.41421356
10
10.0
20
103.33333333333333
10
10.0
20
129.0
42
0.41421356
0
LWPOLYLINE
8
CUT
90
8
70
1
10
35.57142857142857
20
189.33333333333334
10
56.14285714285714
20
189.33333333333334
42
0.41421356
10
57.14285714285714
20
188.33333333333334
10
57.14285714285714
20
162.66666666666669
42
0.41421356
10
56.14285714285714
20
161.66666666666669
10
35.57142857142857
20
161.66666666666669
42
0.41421356
10
34.57142857142857
20
162.66666666666669
10
34.57142857142857
20
188.33333333333334
42
0.41421356
0
LWPOLYLINE
8
CUT
90
8
70
1
10
60.142857142857146
20
189.33333333333334
10
80.71428571428572
20
189.33333333333334
42
0.41421356
10
81.71428571428572
20
188.33333333333334
10
81.71428571428572
20
162.66666666666669
42
0.41421356
10
80.71428571428572
20
161.66666666666669
10
60.142857142857146
20
161.66666666666669
42
0.41421356
10
59.142857142857146
20
162.66666666666669
10
59.142857142857146
20
188.33333333333334
42
0.41421356
0
LWPOLYLINE
8
CUT
90
8
70
1
10
84.71428571428572
20
189.33333333333334
10
105.28571428571429
20
189.33333333333334
42
0.41421356
10
106.28571428571429
20
188.33333333333334
10
106.28571428571429
20
162.66666666666669
42
0.41421356
10
105.28571428571429
20
161.66666666666669
10
84.71428571428572
20
161.66666666666669
42
0.41421356
10
83.71428571428572
20
162.66666666666669
10
83.71428571428572
20
188.33333333333334
42
0.41421356
0
LWPOLYLINE
8
CUT
90
8
70
1
10
109.28571428571429
20
189.33333333333334
10
129.85714285714286
20
189.33333333333334
42
0.41421356
10
130.85714285714286
20
188.33333333333334
10
130.85714285714286
20
162.66666666666669
42
0.41421356
10
129.85714285714286
20
161.66666666666669
10
109.28571428571429
20
161.66666666666669
42
0.41421356
10
108.28571428571429
20
162.66666666666669
10
108.28571428571429
20
188.33333333333334
42
0.41421356
0
LWPOLYLINE
8
CUT
90
8
70
1
10
133.85714285714286
20
189.33333333333334
10
154.42857142857144
20
189.33333333333334
42
0.41421356
10
155.42857142857144
20
188.33333333333334
10
155.42857142857144
20
162.66666666666669
42
0.41421356
10
154.42857142857144
20
161.66666666666669
10
133.85714285714286
20
161.66666666666669
42
0.41421356
10
132.85714285714286
20
162.66666666666669
10
132.85714285714286
20
188.33333333333334
42
0.41421356
0
LWPOLYLINE
8
CUT
90
8
70
1
10
158.42857142857144
20
189.33333333333334
10
179.00000000000003
20
189.33333333333334
42
0.41421356
10
180.00000000000003
20
188.33333333333334
10
180.00000000000003
20
162.66666666666669
42
0.41421356
10
179.00000000000003
20
161.66666666666669
10
158.42857142857144
20
161.66666666666669
42
0.41421356
10
157.42857142857144
20
162.66666666666669
10
157.42857142857144
20
188.33333333333334
42
0.41421356
0
LWPOLYLINE
8
CUT
90
8
70
1
10
11.0
20
100.33333333333333
10
31.57142857142857
20
100.33333333333333
42
0.41421356
10
32.57142857142857
20
99.33333333333333
10
32.57142857142857
20
73.66666666666666
42
0.41421356
10
31.57142857142857
20
72.66666666666666
10
11.0
20
72.66666666666666
42
0.41421356
10
10.0
20
73.66666666666666
10
10.0
20
99.33333333333333
42
0.41421356
0
LWPOLYLINE
8
CUT
90
8
70
1
10
35.57142857142857
20
189.33333333333334
10
56.14285714285714
20
189.33333333333334
42
0.41421356
10
57.14285714285714
20
188.33333333333334
10
57.14285714285714
20
162.66666666666669
42
0.41421356
10
56.14285714285714
20
161.66666666666669
10
35.57142857142857
20
161.66666666666669
42
0.41421356
10
34.57142857142857
20
162.66666666666669
10
34.57142857142857
20
188.33333333333334
42
0.41421356
0
LWPOLYLINE
8
CUT
90
8
70
1
10
60.142857142857146
20
189.33333333333334
10
80.71428571428572
20
189.33333333333334
42
0.41421356
10
81.71428571428572
20
188.33333333333334
10
81.71428571428572
20
162.66666666666669
42
0.41421356
10
80.71428571428572
20
161.66666666666669
10
60.142857142857146
20
161.66666666666669
42
0.41421356
10
59.142857142857146
20
162.66666666666669
10
59.142857142857146
20
188.33333333333334
42
0.41421356
0
LWPOLYLINE
8
CUT
90
8
70
1
10
84.71428571428572
20
189.33333333333334
10
105.28571428571429
20
189.33333333333334
42
0.41421356
10
106.28571428571429
20
188.33333333333334
10
106.28571428571429
20
162.66666666666669
42
0.41421356
10
105.28571428571429
20
161.66666666666669
10
84.71428571428572
20
161.66666666666669
42
0.41421356
10
83.71428571428572
20
162.66666666666669
10
83.71428571428572
20
188.33333333333334
42
0.41421356
0
LWPOLYLINE
8
CUT
90
8
70
1
10
109.28571428571429
20
189.33333333333334
10
129.85714285714286
20
189.33333333333334
42
0.41421356
10
130.85714285714286
20
188.33333333333334
10
130.85714285714286
20
162.66666666666669
42
0.41421356
10
129.85714285714286
20
161.66666666666669
10
109.28571428571429
20
161.66666666666669
42
0.41421356
10
108.28571428571429
20
162.66666666666669
10
108.28571428571429
20
188.33333333333334
42
0.41421356
0
LWPOLYLINE
8
CUT
90
8
70
1
10
133.85714285714286
20
189.33333333333334
10
154.42857142857144
20
189.33333333333334
42
0.41421356
10
155.42857142857144
20
188.33333333333334
10
155.42857142857144
20
162.66666666666669
42
0.41421356
10
154.42857142857144
20
161.66666666666669
10
133.85714285714286
20
161.66666666666669
42
0.41421356
10
132.85714285714286
20
162.66666666666669
10
132.85714285714286
20
188.33333333333334
42
0.41421356
0
LWPOLYLINE
8
CUT
90
8
70
1
10
158.42857142857144
20
189.33333333333334
10
179.00000000000003
20
189.33333333333334
42
0.41421356
10
180.00000000000003
20
188.33333333333334
10
180.00000000000003
20
162.66666666666669
42
0.41421356
10
179.00000000000003
20
161.66666666666669
10
158.42857142857144
20
161.66666666666669
42
0.41421356
10
157.42857142857144
20
162.66666666666669
10
157.42857142857144
20
188.33333333333334
42
0.41421356
0
LWPOLYLINE
8
CUT
90
8
70
1
10
11.0
20
70.66666666666666
10
31.57142857142857
20
70.66666666666666
42
0.41421356
10
32.57142857142857
20
69.66666666666666
10
32.57142857142857
20
43.999999999999986
42
0.41421356
10
31.57142857142857
20
42.999999999999986
10
11.0
20
42.999999999999986
42
0.41421356
10
10.0
20
43.999999999999986
10
10.0
20
69.66666666666666
42
0.41421356
0
LWPOLYLINE
8
CUT
90
8
70
1
10
35.57142857142857
20
189.33333333333334
10
56.14285714285714
20
189.33333333333334
42
0.41421356
10
57.14285714285714
20
188.33333333333334
10
57.14285714285714
20
162.66666666666669
42
0.41421356
10
56.14285714285714
20
161.66666666666669
10
35.57142857142857
20
161.66666666666669
42
0.41421356
10
34.57142857142857
20
162.66666666666669
10
34.57142857142857
20
188.33333333333334
42
0.41421356
0
LWPOLYLINE
8
CUT
90
8
70
1
10
60.142857142857146
20
189.33333333333334
10
80.71428571428572
20
189.33333333333334
42
0.41421356
10
81.71428571428572
20
188.33333333333334
10
81.71428571428572
20
162.66666666666669
42
0.41421356
10
80.71428571428572
20
161.66666666666669
10
60.142857142857146
20
161.66666666666669
42
0.41421356
10
59.142857142857146
20
162.66666666666669
10
59.142857142857146
20
188.33333333333334
42
0.41421356
0
LWPOLYLINE
8
CUT
90
8
70
1
10
84.71428571428572
20
189.33333333333334
10
105.28571428571429
20
189.33333333333334
42
0.41421356
10
106.28571428571429
20
188.33333333333334
10
106.28571428571429
20
162.66666666666669
42
0.41421356
10
105.28571428571429
20
161.66666666666669
10
84.71428571428572
20
161.66666666666669
42
0.41421356
10
83.71428571428572
20
162.66666666666669
10
83.71428571428572
20
188.33333333333334
42
0.41421356
0
LWPOLYLINE
8
CUT
90
8
70
1
10
109.28571428571429
20
189.33333333333334
10
129.85714285714286
20
189.33333333333334
42
0.41421356
10
130.85714285714286
20
188.33333333333334
10
130.85714285714286
20
162.66666666666669
42
0.41421356
10
129.85714285714286
20
161.66666666666669
10
109.28571428571429
20
161.66666666666669
42
0.41421356
10
108.28571428571429
20
162.66666666666669
10
108.28571428571429
20
188.33333333333334
42
0.41421356
0
LWPOLYLINE
8
CUT
90
8
70
1
10
133.85714285714286
20
189.33333333333334
10
154.42857142857144
20
189.33333333333334
42
0.41421356
10
155.42857142857144
20
188.33333333333334
10
155.42857142857144
20
162.66666666666669
42
0.41421356
10
154.42857142857144
20
161.66666666666669
10
133.85714285714286
20
161.66666666666669
42
0.41421356
10
132.85714285714286
20
162.66666666666669
10
132.85714285714286
20
188.33333333333334
42
0.41421356
0
LWPOLYLINE
8
CUT
90
8
70
1
10
158.42857142857144
20
189.33333333333334
10
179.00000000000003
20
189.33333333333334
42
0.41421356
10
180.00000000000003
20
188.33333333333334
10
180.00000000000003
20
162.66666666666669
42
0.41421356
10
179.00000000000003
20
161.66666666666669
10
158.42857142857144
20
161.66666666666669
42
0.41421356
10
157.42857142857144
20
162.66666666666669
10
157.42857142857144
20
188.33333333333334
42
0.41421356
0
LINE
8
SCORE_ENGRAVE
10
10.0
20
31
30
0
11
10.0
21
41
31
0
0
LINE
8
SCORE_ENGRAVE
10
34.57142857142857
20
31
30
0
11
34.57142857142857
21
41
31
0
0
LINE
8
SCORE_ENGRAVE
10
59.142857142857146
20
31
30
0
11
59.142857142857146
21
41
31
0
0
LINE
8
SCORE_ENGRAVE
10
83.71428571428572
20
31
30
0
11
83.71428571428572
21
41
31
0
0
LINE
8
SCORE_ENGRAVE
10
108.28571428571429
20
31
30
0
11
108.28571428571429
21
41
31
0
0
LINE
8
SCORE_ENGRAVE
10
132.85714285714286
20
31
30
0
11
132.85714285714286
21
41
31
0
0
LINE
8
SCORE_ENGRAVE
10
157.42857142857144
20
31
30
0
11
157.42857142857144
21
41
31
0
0
LINE
8
SCORE_ENGRAVE
10
182.0
20
31
30
0
11
182.0
21
41
31
0
0
LINE
8
SCORE_ENGRAVE
10
8
20
28
30
0
11
182
21
28
31
0
0
LINE
8
SCORE_ENGRAVE
10
8
20
31
30
0
11
182
21
31
31
0
0
LINE
8
SCORE_ENGRAVE
10
8
20
41
30
0
11
182
21
41
31
0
0
LINE
8
SCORE_ENGRAVE
10
8
20
230
30
0
11
182
21
230
31
0
0
LINE
8
SCORE_ENGRAVE
10
8
20
241
30
0
11
182
21
241
31
0
0
ENDSEC
0
EOF
